PathFileType	4	(X/Y/Z)	c:/Users/goper/Files/vsCode/490R/osim_files/C07/C07_SSWS_03.trc
DataRate	CameraRate	NumFrames	NumMarkers	Units                	OrigDataRate	OrigDataStartFrame	OrigNumFrames
250.00	250.00	4	36	mm	250.0	1745	3489
                Frame#	Time	LPSIS			LASIS			LTH1			LTH2			LTH3			LTH4			LLFE			LMFE			LSH1			LSH2			LSH3			LSH4			LLMAL			LMMAL			LCAL			LMTP5			LTOE			LMTP1			RPSIS			RASIS			RTH1			RTH2			RTH3			RTH4			RLFE			RMFE			RSH1			RSH2			RSH3			RSH4			RLMAL			RMMAL			RCAL			RMTP1			RTOE			RMTP5		
		X1	Y1	Z1	X2	Y2	Z2	X3	Y3	Z3	X4	Y4	Z4	X5	Y5	Z5	X6	Y6	Z6	X7	Y7	Z7	X8	Y8	Z8	X9	Y9	Z9	X10	Y10	Z10	X11	Y11	Z11	X12	Y12	Z12	X13	Y13	Z13	X14	Y14	Z14	X15	Y15	Z15	X16	Y16	Z16	X17	Y17	Z17	X18	Y18	Z18	X19	Y19	Z19	X20	Y20	Z20	X21	Y21	Z21	X22	Y22	Z22	X23	Y23	Z23	X24	Y24	Z24	X25	Y25	Z25	X26	Y26	Z26	X27	Y27	Z27	X28	Y28	Z28	X29	Y29	Z29	X30	Y30	Z30	X31	Y31	Z31	X32	Y32	Z32	X33	Y33	Z33	X34	Y34	Z34	X35	Y35	Z35	X36	Y36	Z36

1745	6.97600	887.03571	988.94226	353.62338	726.00720	962.22369	448.70447	0.00000	0.00000	0.00000	0.00000	0.00000	0.00000	858.46912	632.06067	468.13681	0.00000	0.00000	0.00000	911.09326	516.28949	439.51987	902.55273	502.65891	320.43030	1012.93402	348.69156	442.32779	1045.76611	314.85736	426.56879	973.99420	339.00436	430.95004	0.00000	0.00000	0.00000	1121.78540	151.69522	374.23303	1082.03052	165.62004	305.05356	1192.29126	108.07046	315.77356	1027.92444	45.36926	404.16006	968.58569	51.80209	355.35471	994.88232	46.88647	299.62888	878.70575	991.23352	255.91104	0.00000	0.00000	0.00000	725.03119	809.57880	133.94992	699.66064	734.73480	134.20616	0.00000	0.00000	0.00000	634.08923	755.32227	171.47174	634.68976	490.03879	187.60718	638.44159	500.15652	299.21381	637.15961	299.13043	185.12427	594.37604	262.76797	182.55862	580.24030	322.60458	181.52850	566.69751	277.93573	187.71060	552.18268	94.34254	234.43074	520.18524	120.49393	306.46286	578.87634	40.86485	288.61539	375.33395	87.66482	298.69067	360.61786	103.56614	246.97821	402.49799	65.92095	194.78854
1746	6.98000	880.90582	988.51697	353.62555	719.94849	962.22919	448.42480	835.80792	783.90259	489.93161	0.00000	0.00000	0.00000	852.90277	631.83319	468.30176	0.00000	0.00000	0.00000	905.52850	515.84283	439.94635	896.85168	502.23767	320.78580	1008.78033	349.38638	442.76437	1041.93628	315.91708	427.03836	969.90967	339.31946	431.25870	0.00000	0.00000	0.00000	1119.76965	153.64568	374.88715	1079.95081	167.15895	305.62061	1191.72070	108.70575	320.69946	1027.55688	45.48335	404.13010	968.40765	51.79682	355.41324	994.77759	46.94175	299.74707	873.11823	991.09863	255.67877	0.00000	0.00000	0.00000	719.43781	809.50336	134.24123	694.22089	734.42963	134.69305	0.00000	0.00000	0.00000	628.41107	754.86090	171.53127	630.96710	489.34155	188.05394	635.03357	499.49020	299.54590	634.35248	298.55258	185.79514	591.38025	261.91257	183.52672	576.68256	321.63904	182.35713	563.73456	277.08279	188.59288	549.65924	93.96312	234.97559	517.32782	119.60389	307.09283	577.57098	41.66218	289.16061	373.37006	84.32287	298.64056	357.67905	100.38539	246.74124	400.88815	63.45942	195.28561
1747	6.98400	875.97748	988.59930	353.04037	714.52222	962.12134	448.45502	830.33594	783.72290	489.78635	0.00000	0.00000	0.00000	847.16840	631.50299	468.43546	0.00000	0.00000	0.00000	899.50153	515.71039	440.13153	890.98877	501.80783	321.19980	1004.39746	350.24304	443.20395	1038.03711	317.09058	427.42896	965.67169	339.62405	431.63251	0.00000	0.00000	0.00000	1117.61450	155.66199	375.53262	1077.67725	168.55025	306.16806	1189.13916	111.64179	318.65277	1027.22095	45.72131	404.27679	968.27289	51.80708	355.50589	994.63861	46.96112	299.83005	867.55243	991.10992	255.36298	0.00000	0.00000	0.00000	713.84637	809.51678	134.53236	688.59473	734.09131	135.54791	0.00000	0.00000	0.00000	622.84723	754.34222	171.58733	627.28638	488.67062	188.28554	631.90765	498.70456	299.92322	631.00531	297.72681	186.76311	588.44666	261.18747	184.20361	573.11792	320.72107	183.15503	560.70416	276.32535	189.16846	547.12451	93.56047	235.31606	514.71838	118.65948	307.69229	576.35107	42.52625	289.48984	371.67313	81.13237	298.64221	355.03391	97.34961	246.71954	399.38217	61.21815	195.88614
1748	6.98800	870.29694	988.54974	352.78949	709.64880	961.82062	448.63022	824.55762	783.03528	489.65787	0.00000	0.00000	0.00000	841.15887	631.25360	468.55569	0.00000	0.00000	0.00000	893.36163	515.49268	440.49567	884.92493	501.38205	321.68201	999.82855	351.12445	443.64569	1033.87573	318.33875	427.85925	961.29456	340.04675	432.02011	0.00000	0.00000	0.00000	1115.31250	157.74371	376.16284	1075.30750	170.09233	306.74631	1187.31812	114.46561	318.93430	1026.76843	45.96536	404.38379	968.09998	51.79947	355.54227	994.53076	46.98614	299.86987	861.95728	991.24896	254.96278	0.00000	0.00000	0.00000	708.09723	809.50397	134.98889	683.59192	734.32379	135.14192	0.00000	0.00000	0.00000	617.31580	753.91675	171.75792	623.67175	488.01355	188.38577	628.83905	497.95142	300.24808	628.04773	297.39987	187.25523	585.23547	260.55399	184.76909	569.56738	319.86319	183.90071	556.71637	275.70404	189.61800	544.74420	93.18063	235.56731	512.30988	117.79561	308.14420	575.24963	43.32635	289.83899	370.09616	78.12132	298.76834	352.50378	94.32580	246.99373	397.80658	59.06064	196.50450
